<mxfile host="app.diagrams.net" modified="2024-04-28T23:07:26.610Z" agent="Mozilla/5.0 (Windows NT 10.0; Win64; x64) AppleWebKit/537.36 (KHTML, like Gecko) Chrome/124.0.0.0 Safari/537.36" etag="U2tpuy0DfZM772SUB8gj" version="24.3.1" type="device">
  <diagram name="PÃ¡gina-1" id="9G-jiBbXyWQMmMKG_TOl">
    <mxGraphModel dx="1674" dy="1796" grid="1" gridSize="10" guides="1" tooltips="1" connect="1" arrows="1" fold="1" page="1" pageScale="1" pageWidth="850" pageHeight="1100" math="0" shadow="0">
      <root>
        <mxCell id="0" />
        <mxCell id="1" parent="0" />
        <mxCell id="lY28mUYmYCUtM_2u1SJm-2" value="User" style="html=1;whiteSpace=wrap;" parent="1" vertex="1">
          <mxGeometry x="130" y="150" width="110" height="50" as="geometry" />
        </mxCell>
        <mxCell id="lY28mUYmYCUtM_2u1SJm-3" value="Product" style="html=1;whiteSpace=wrap;" parent="1" vertex="1">
          <mxGeometry x="970" y="150" width="110" height="50" as="geometry" />
        </mxCell>
        <mxCell id="lY28mUYmYCUtM_2u1SJm-4" value="&lt;b&gt;IdUser&lt;/b&gt;&lt;div&gt;&lt;div&gt;firstName&lt;/div&gt;&lt;div&gt;lastName&lt;/div&gt;&lt;div&gt;age&lt;/div&gt;&lt;div&gt;gender&lt;/div&gt;&lt;div&gt;email&lt;/div&gt;&lt;div&gt;username&lt;/div&gt;&lt;div&gt;password&lt;/div&gt;&lt;/div&gt;" style="text;html=1;align=left;verticalAlign=middle;resizable=0;points=[];autosize=1;strokeColor=none;fillColor=none;" parent="1" vertex="1">
          <mxGeometry x="40" y="150" width="80" height="130" as="geometry" />
        </mxCell>
        <mxCell id="lY28mUYmYCUtM_2u1SJm-5" value="&lt;b&gt;IdProduct&lt;/b&gt;&lt;div&gt;&lt;b&gt;&lt;u&gt;IdUser&lt;/u&gt;&lt;br&gt;&lt;/b&gt;&lt;div&gt;title&lt;/div&gt;&lt;div&gt;description&lt;/div&gt;&lt;div&gt;price&lt;/div&gt;&lt;div&gt;discountPercentage&lt;/div&gt;&lt;div&gt;rating&lt;/div&gt;&lt;div&gt;stock&lt;/div&gt;&lt;div&gt;brand&lt;/div&gt;&lt;div&gt;category&lt;/div&gt;&lt;div&gt;thumbnail&lt;/div&gt;&lt;/div&gt;" style="text;html=1;align=left;verticalAlign=middle;resizable=0;points=[];autosize=1;strokeColor=none;fillColor=none;" parent="1" vertex="1">
          <mxGeometry x="970" y="200" width="130" height="170" as="geometry" />
        </mxCell>
        <mxCell id="lY28mUYmYCUtM_2u1SJm-13" value="Cart" style="html=1;whiteSpace=wrap;" parent="1" vertex="1">
          <mxGeometry x="530" y="150" width="110" height="50" as="geometry" />
        </mxCell>
        <mxCell id="lY28mUYmYCUtM_2u1SJm-14" value="Make" style="rhombus;whiteSpace=wrap;html=1;" parent="1" vertex="1">
          <mxGeometry x="345" y="135" width="80" height="80" as="geometry" />
        </mxCell>
        <mxCell id="lY28mUYmYCUtM_2u1SJm-15" value="" style="endArrow=none;html=1;rounded=0;exitX=1;exitY=0.5;exitDx=0;exitDy=0;entryX=0;entryY=0.5;entryDx=0;entryDy=0;" parent="1" source="lY28mUYmYCUtM_2u1SJm-2" target="lY28mUYmYCUtM_2u1SJm-14" edge="1">
          <mxGeometry width="50" height="50" relative="1" as="geometry">
            <mxPoint x="630" y="300" as="sourcePoint" />
            <mxPoint x="680" y="250" as="targetPoint" />
          </mxGeometry>
        </mxCell>
        <mxCell id="lY28mUYmYCUtM_2u1SJm-18" value="1" style="edgeLabel;html=1;align=center;verticalAlign=middle;resizable=0;points=[];" parent="lY28mUYmYCUtM_2u1SJm-15" vertex="1" connectable="0">
          <mxGeometry x="-0.4552" y="-2" relative="1" as="geometry">
            <mxPoint x="6" y="-2" as="offset" />
          </mxGeometry>
        </mxCell>
        <mxCell id="lY28mUYmYCUtM_2u1SJm-17" value="" style="endArrow=none;html=1;rounded=0;exitX=1;exitY=0.5;exitDx=0;exitDy=0;entryX=0;entryY=0.5;entryDx=0;entryDy=0;" parent="1" source="lY28mUYmYCUtM_2u1SJm-14" target="lY28mUYmYCUtM_2u1SJm-13" edge="1">
          <mxGeometry width="50" height="50" relative="1" as="geometry">
            <mxPoint x="630" y="300" as="sourcePoint" />
            <mxPoint x="680" y="250" as="targetPoint" />
          </mxGeometry>
        </mxCell>
        <mxCell id="lY28mUYmYCUtM_2u1SJm-21" value="n" style="edgeLabel;html=1;align=center;verticalAlign=middle;resizable=0;points=[];" parent="lY28mUYmYCUtM_2u1SJm-17" vertex="1" connectable="0">
          <mxGeometry x="0.3067" relative="1" as="geometry">
            <mxPoint as="offset" />
          </mxGeometry>
        </mxCell>
        <mxCell id="lY28mUYmYCUtM_2u1SJm-20" value="&lt;div&gt;&lt;b&gt;IdCart&lt;/b&gt;&lt;/div&gt;&lt;div&gt;&lt;b style=&quot;background-color: initial;&quot;&gt;&lt;u&gt;IdUser&lt;/u&gt;&lt;/b&gt;&lt;/div&gt;&lt;div&gt;&lt;b&gt;&lt;u&gt;IdPayment&lt;/u&gt;&lt;/b&gt;&lt;/div&gt;&lt;div&gt;cartNumber&lt;/div&gt;&lt;div&gt;cartDate&lt;/div&gt;&lt;div&gt;deleted&lt;/div&gt;&lt;div&gt;paid&lt;/div&gt;" style="text;html=1;align=left;verticalAlign=middle;resizable=0;points=[];autosize=1;strokeColor=none;fillColor=none;" parent="1" vertex="1">
          <mxGeometry x="530" y="200" width="90" height="110" as="geometry" />
        </mxCell>
        <mxCell id="lY28mUYmYCUtM_2u1SJm-22" value="Payment" style="html=1;whiteSpace=wrap;" parent="1" vertex="1">
          <mxGeometry x="530" y="-115" width="110" height="50" as="geometry" />
        </mxCell>
        <mxCell id="lY28mUYmYCUtM_2u1SJm-23" value="&lt;b&gt;IdPayment&lt;/b&gt;&lt;br&gt;&lt;div&gt;paymentType&lt;/div&gt;&lt;div&gt;allowed&lt;/div&gt;" style="text;html=1;align=left;verticalAlign=middle;resizable=0;points=[];autosize=1;strokeColor=none;fillColor=none;" parent="1" vertex="1">
          <mxGeometry x="640" y="-120" width="100" height="60" as="geometry" />
        </mxCell>
        <mxCell id="lY28mUYmYCUtM_2u1SJm-24" value="process" style="rhombus;whiteSpace=wrap;html=1;" parent="1" vertex="1">
          <mxGeometry x="545" width="80" height="80" as="geometry" />
        </mxCell>
        <mxCell id="lY28mUYmYCUtM_2u1SJm-25" value="" style="endArrow=none;html=1;rounded=0;exitX=0.5;exitY=0;exitDx=0;exitDy=0;entryX=0.5;entryY=1;entryDx=0;entryDy=0;" parent="1" source="lY28mUYmYCUtM_2u1SJm-13" target="lY28mUYmYCUtM_2u1SJm-24" edge="1">
          <mxGeometry width="50" height="50" relative="1" as="geometry">
            <mxPoint x="630" y="170" as="sourcePoint" />
            <mxPoint x="680" y="120" as="targetPoint" />
          </mxGeometry>
        </mxCell>
        <mxCell id="lY28mUYmYCUtM_2u1SJm-27" value="n" style="edgeLabel;html=1;align=center;verticalAlign=middle;resizable=0;points=[];" parent="lY28mUYmYCUtM_2u1SJm-25" vertex="1" connectable="0">
          <mxGeometry x="-0.1543" y="-1" relative="1" as="geometry">
            <mxPoint x="-1" as="offset" />
          </mxGeometry>
        </mxCell>
        <mxCell id="lY28mUYmYCUtM_2u1SJm-26" value="" style="endArrow=none;html=1;rounded=0;exitX=0.5;exitY=0;exitDx=0;exitDy=0;entryX=0.5;entryY=1;entryDx=0;entryDy=0;" parent="1" source="lY28mUYmYCUtM_2u1SJm-24" target="lY28mUYmYCUtM_2u1SJm-22" edge="1">
          <mxGeometry width="50" height="50" relative="1" as="geometry">
            <mxPoint x="630" y="170" as="sourcePoint" />
            <mxPoint x="680" y="120" as="targetPoint" />
          </mxGeometry>
        </mxCell>
        <mxCell id="lY28mUYmYCUtM_2u1SJm-28" value="1" style="edgeLabel;html=1;align=center;verticalAlign=middle;resizable=0;points=[];" parent="lY28mUYmYCUtM_2u1SJm-26" vertex="1" connectable="0">
          <mxGeometry x="0.1877" y="1" relative="1" as="geometry">
            <mxPoint as="offset" />
          </mxGeometry>
        </mxCell>
        <mxCell id="lY28mUYmYCUtM_2u1SJm-32" value="Includes" style="rhombus;whiteSpace=wrap;html=1;" parent="1" vertex="1">
          <mxGeometry x="760" y="135" width="80" height="80" as="geometry" />
        </mxCell>
        <mxCell id="lY28mUYmYCUtM_2u1SJm-33" value="" style="endArrow=none;html=1;rounded=0;exitX=1;exitY=0.5;exitDx=0;exitDy=0;entryX=0;entryY=0.5;entryDx=0;entryDy=0;" parent="1" source="lY28mUYmYCUtM_2u1SJm-13" target="lY28mUYmYCUtM_2u1SJm-32" edge="1">
          <mxGeometry width="50" height="50" relative="1" as="geometry">
            <mxPoint x="860" y="60" as="sourcePoint" />
            <mxPoint x="1300" y="135" as="targetPoint" />
          </mxGeometry>
        </mxCell>
        <mxCell id="lY28mUYmYCUtM_2u1SJm-37" value="n" style="edgeLabel;html=1;align=center;verticalAlign=middle;resizable=0;points=[];" parent="lY28mUYmYCUtM_2u1SJm-33" vertex="1" connectable="0">
          <mxGeometry x="-0.3233" relative="1" as="geometry">
            <mxPoint as="offset" />
          </mxGeometry>
        </mxCell>
        <mxCell id="lY28mUYmYCUtM_2u1SJm-35" value="" style="endArrow=none;html=1;rounded=0;exitX=1;exitY=0.5;exitDx=0;exitDy=0;entryX=0;entryY=0.5;entryDx=0;entryDy=0;" parent="1" source="lY28mUYmYCUtM_2u1SJm-32" target="lY28mUYmYCUtM_2u1SJm-3" edge="1">
          <mxGeometry width="50" height="50" relative="1" as="geometry">
            <mxPoint x="1250" y="185" as="sourcePoint" />
            <mxPoint x="1150" y="60" as="targetPoint" />
          </mxGeometry>
        </mxCell>
        <mxCell id="lY28mUYmYCUtM_2u1SJm-36" value="n" style="edgeLabel;html=1;align=center;verticalAlign=middle;resizable=0;points=[];" parent="lY28mUYmYCUtM_2u1SJm-35" vertex="1" connectable="0">
          <mxGeometry x="0.3067" relative="1" as="geometry">
            <mxPoint as="offset" />
          </mxGeometry>
        </mxCell>
        <mxCell id="lY28mUYmYCUtM_2u1SJm-38" value="&lt;div&gt;&lt;b style=&quot;background-color: initial;&quot;&gt;&lt;u&gt;IdCart&lt;/u&gt;&lt;/b&gt;&lt;br&gt;&lt;/div&gt;&lt;div&gt;&lt;b style=&quot;background-color: initial;&quot;&gt;&lt;u&gt;IdProduct&lt;/u&gt;&lt;/b&gt;&lt;/div&gt;&lt;div&gt;&lt;span style=&quot;background-color: initial;&quot;&gt;price&lt;/span&gt;&lt;/div&gt;&lt;div&gt;quatity&lt;/div&gt;&lt;div&gt;discount&lt;/div&gt;&lt;div&gt;total&lt;/div&gt;&lt;div&gt;date&lt;/div&gt;" style="text;html=1;align=left;verticalAlign=middle;resizable=0;points=[];autosize=1;strokeColor=none;fillColor=none;" parent="1" vertex="1">
          <mxGeometry x="760" y="215" width="80" height="110" as="geometry" />
        </mxCell>
        <mxCell id="lY28mUYmYCUtM_2u1SJm-39" value="Seller" style="html=1;whiteSpace=wrap;" parent="1" vertex="1">
          <mxGeometry x="130" y="420" width="110" height="50" as="geometry" />
        </mxCell>
        <mxCell id="lY28mUYmYCUtM_2u1SJm-40" value="" style="verticalLabelPosition=bottom;verticalAlign=top;html=1;shape=mxgraph.basic.acute_triangle;dx=0.5;" parent="1" vertex="1">
          <mxGeometry x="135" y="260" width="100" height="70" as="geometry" />
        </mxCell>
        <mxCell id="lY28mUYmYCUtM_2u1SJm-41" value="ISA" style="text;html=1;align=center;verticalAlign=middle;resizable=0;points=[];autosize=1;strokeColor=none;fillColor=none;" parent="1" vertex="1">
          <mxGeometry x="165" y="290" width="40" height="30" as="geometry" />
        </mxCell>
        <mxCell id="lY28mUYmYCUtM_2u1SJm-42" value="" style="endArrow=none;html=1;rounded=0;exitX=0;exitY=0;exitDx=50;exitDy=0;exitPerimeter=0;entryX=0.5;entryY=1;entryDx=0;entryDy=0;" parent="1" source="lY28mUYmYCUtM_2u1SJm-40" target="lY28mUYmYCUtM_2u1SJm-2" edge="1">
          <mxGeometry width="50" height="50" relative="1" as="geometry">
            <mxPoint x="300" y="400" as="sourcePoint" />
            <mxPoint x="350" y="350" as="targetPoint" />
          </mxGeometry>
        </mxCell>
        <mxCell id="lY28mUYmYCUtM_2u1SJm-43" value="" style="endArrow=none;html=1;rounded=0;exitX=0.5;exitY=0;exitDx=0;exitDy=0;entryX=0.5;entryY=1;entryDx=0;entryDy=0;entryPerimeter=0;" parent="1" source="lY28mUYmYCUtM_2u1SJm-39" target="lY28mUYmYCUtM_2u1SJm-40" edge="1">
          <mxGeometry width="50" height="50" relative="1" as="geometry">
            <mxPoint x="300" y="400" as="sourcePoint" />
            <mxPoint x="350" y="350" as="targetPoint" />
          </mxGeometry>
        </mxCell>
        <mxCell id="lY28mUYmYCUtM_2u1SJm-44" value="Sell" style="rhombus;whiteSpace=wrap;html=1;" parent="1" vertex="1">
          <mxGeometry x="1195" y="255" width="80" height="80" as="geometry" />
        </mxCell>
        <mxCell id="lY28mUYmYCUtM_2u1SJm-46" value="" style="endArrow=none;html=1;rounded=0;exitX=1;exitY=0.5;exitDx=0;exitDy=0;entryX=0.5;entryY=1;entryDx=0;entryDy=0;edgeStyle=orthogonalEdgeStyle;" parent="1" source="lY28mUYmYCUtM_2u1SJm-39" target="lY28mUYmYCUtM_2u1SJm-44" edge="1">
          <mxGeometry width="50" height="50" relative="1" as="geometry">
            <mxPoint x="250" y="440" as="sourcePoint" />
            <mxPoint x="710" y="380" as="targetPoint" />
          </mxGeometry>
        </mxCell>
        <mxCell id="lY28mUYmYCUtM_2u1SJm-49" value="1" style="edgeLabel;html=1;align=center;verticalAlign=middle;resizable=0;points=[];" parent="lY28mUYmYCUtM_2u1SJm-46" vertex="1" connectable="0">
          <mxGeometry x="0.6427" y="-1" relative="1" as="geometry">
            <mxPoint as="offset" />
          </mxGeometry>
        </mxCell>
        <mxCell id="lY28mUYmYCUtM_2u1SJm-47" value="" style="endArrow=none;html=1;rounded=0;exitX=0.5;exitY=0;exitDx=0;exitDy=0;entryX=1;entryY=0.5;entryDx=0;entryDy=0;edgeStyle=orthogonalEdgeStyle;" parent="1" source="lY28mUYmYCUtM_2u1SJm-44" target="lY28mUYmYCUtM_2u1SJm-3" edge="1">
          <mxGeometry width="50" height="50" relative="1" as="geometry">
            <mxPoint x="680" y="330" as="sourcePoint" />
            <mxPoint x="730" y="280" as="targetPoint" />
          </mxGeometry>
        </mxCell>
        <mxCell id="lY28mUYmYCUtM_2u1SJm-48" value="n" style="edgeLabel;html=1;align=center;verticalAlign=middle;resizable=0;points=[];" parent="lY28mUYmYCUtM_2u1SJm-47" vertex="1" connectable="0">
          <mxGeometry x="0.28" y="4" relative="1" as="geometry">
            <mxPoint x="-5" y="-4" as="offset" />
          </mxGeometry>
        </mxCell>
        <mxCell id="lY28mUYmYCUtM_2u1SJm-50" value="&lt;b&gt;IdUser&lt;/b&gt;&lt;div&gt;earnings&lt;/div&gt;&lt;div&gt;phone&lt;/div&gt;&lt;div&gt;address&lt;/div&gt;" style="text;html=1;align=left;verticalAlign=middle;resizable=0;points=[];autosize=1;strokeColor=none;fillColor=none;" parent="1" vertex="1">
          <mxGeometry x="130" y="470" width="70" height="70" as="geometry" />
        </mxCell>
        <mxCell id="lY28mUYmYCUtM_2u1SJm-51" value="Role" style="html=1;whiteSpace=wrap;" parent="1" vertex="1">
          <mxGeometry x="130" y="-110" width="110" height="50" as="geometry" />
        </mxCell>
        <mxCell id="lY28mUYmYCUtM_2u1SJm-52" value="&lt;div&gt;&lt;b&gt;IdRole&lt;/b&gt;&lt;/div&gt;&lt;div&gt;descriptionRol&lt;/div&gt;" style="text;html=1;align=left;verticalAlign=middle;resizable=0;points=[];autosize=1;strokeColor=none;fillColor=none;" parent="1" vertex="1">
          <mxGeometry x="240" y="-110" width="100" height="40" as="geometry" />
        </mxCell>
        <mxCell id="lY28mUYmYCUtM_2u1SJm-53" value="have" style="rhombus;whiteSpace=wrap;html=1;" parent="1" vertex="1">
          <mxGeometry x="145" width="80" height="80" as="geometry" />
        </mxCell>
        <mxCell id="lY28mUYmYCUtM_2u1SJm-54" value="" style="endArrow=none;html=1;rounded=0;exitX=0.5;exitY=0;exitDx=0;exitDy=0;entryX=0.5;entryY=1;entryDx=0;entryDy=0;" parent="1" source="lY28mUYmYCUtM_2u1SJm-2" target="lY28mUYmYCUtM_2u1SJm-53" edge="1">
          <mxGeometry width="50" height="50" relative="1" as="geometry">
            <mxPoint x="610" y="200" as="sourcePoint" />
            <mxPoint x="660" y="150" as="targetPoint" />
          </mxGeometry>
        </mxCell>
        <mxCell id="lY28mUYmYCUtM_2u1SJm-56" value="n" style="edgeLabel;html=1;align=center;verticalAlign=middle;resizable=0;points=[];" parent="lY28mUYmYCUtM_2u1SJm-54" vertex="1" connectable="0">
          <mxGeometry x="-0.32" relative="1" as="geometry">
            <mxPoint as="offset" />
          </mxGeometry>
        </mxCell>
        <mxCell id="lY28mUYmYCUtM_2u1SJm-55" value="" style="endArrow=none;html=1;rounded=0;exitX=0.5;exitY=0;exitDx=0;exitDy=0;entryX=0.5;entryY=1;entryDx=0;entryDy=0;" parent="1" source="lY28mUYmYCUtM_2u1SJm-53" target="lY28mUYmYCUtM_2u1SJm-51" edge="1">
          <mxGeometry width="50" height="50" relative="1" as="geometry">
            <mxPoint x="610" y="200" as="sourcePoint" />
            <mxPoint x="660" y="150" as="targetPoint" />
          </mxGeometry>
        </mxCell>
        <mxCell id="lY28mUYmYCUtM_2u1SJm-57" value="n" style="edgeLabel;html=1;align=center;verticalAlign=middle;resizable=0;points=[];" parent="lY28mUYmYCUtM_2u1SJm-55" vertex="1" connectable="0">
          <mxGeometry x="0.4267" relative="1" as="geometry">
            <mxPoint as="offset" />
          </mxGeometry>
        </mxCell>
        <mxCell id="lY28mUYmYCUtM_2u1SJm-58" value="&lt;b&gt;&lt;u&gt;IdUser&lt;/u&gt;&lt;/b&gt;&lt;div&gt;&lt;b&gt;&lt;u&gt;IdRole&lt;/u&gt;&lt;/b&gt;&lt;/div&gt;" style="text;html=1;align=left;verticalAlign=middle;resizable=0;points=[];autosize=1;strokeColor=none;fillColor=none;" parent="1" vertex="1">
          <mxGeometry x="225" y="20" width="60" height="40" as="geometry" />
        </mxCell>
        <mxCell id="lY28mUYmYCUtM_2u1SJm-60" value="Privilege" style="html=1;whiteSpace=wrap;" parent="1" vertex="1">
          <mxGeometry x="130" y="-370" width="110" height="50" as="geometry" />
        </mxCell>
        <mxCell id="lY28mUYmYCUtM_2u1SJm-61" value="&lt;div&gt;&lt;b&gt;IdPrivilege&lt;/b&gt;&lt;/div&gt;&lt;div&gt;descriptionPrivilege&lt;/div&gt;" style="text;html=1;align=left;verticalAlign=middle;resizable=0;points=[];autosize=1;strokeColor=none;fillColor=none;" parent="1" vertex="1">
          <mxGeometry x="240" y="-370" width="130" height="40" as="geometry" />
        </mxCell>
        <mxCell id="lY28mUYmYCUtM_2u1SJm-62" value="own" style="rhombus;whiteSpace=wrap;html=1;" parent="1" vertex="1">
          <mxGeometry x="145" y="-260" width="80" height="80" as="geometry" />
        </mxCell>
        <mxCell id="lY28mUYmYCUtM_2u1SJm-63" value="" style="endArrow=none;html=1;rounded=0;exitX=0.5;exitY=0;exitDx=0;exitDy=0;entryX=0.5;entryY=1;entryDx=0;entryDy=0;" parent="1" target="lY28mUYmYCUtM_2u1SJm-62" edge="1">
          <mxGeometry width="50" height="50" relative="1" as="geometry">
            <mxPoint x="185" y="-110" as="sourcePoint" />
            <mxPoint x="660" y="-110" as="targetPoint" />
          </mxGeometry>
        </mxCell>
        <mxCell id="lY28mUYmYCUtM_2u1SJm-64" value="n" style="edgeLabel;html=1;align=center;verticalAlign=middle;resizable=0;points=[];" parent="lY28mUYmYCUtM_2u1SJm-63" vertex="1" connectable="0">
          <mxGeometry x="-0.32" relative="1" as="geometry">
            <mxPoint as="offset" />
          </mxGeometry>
        </mxCell>
        <mxCell id="lY28mUYmYCUtM_2u1SJm-65" value="" style="endArrow=none;html=1;rounded=0;exitX=0.5;exitY=0;exitDx=0;exitDy=0;entryX=0.5;entryY=1;entryDx=0;entryDy=0;" parent="1" source="lY28mUYmYCUtM_2u1SJm-62" target="lY28mUYmYCUtM_2u1SJm-60" edge="1">
          <mxGeometry width="50" height="50" relative="1" as="geometry">
            <mxPoint x="610" y="-60" as="sourcePoint" />
            <mxPoint x="660" y="-110" as="targetPoint" />
          </mxGeometry>
        </mxCell>
        <mxCell id="lY28mUYmYCUtM_2u1SJm-66" value="n" style="edgeLabel;html=1;align=center;verticalAlign=middle;resizable=0;points=[];" parent="lY28mUYmYCUtM_2u1SJm-65" vertex="1" connectable="0">
          <mxGeometry x="0.4267" relative="1" as="geometry">
            <mxPoint as="offset" />
          </mxGeometry>
        </mxCell>
        <mxCell id="lY28mUYmYCUtM_2u1SJm-67" value="&lt;b&gt;&lt;u&gt;IdRole&lt;/u&gt;&lt;/b&gt;&lt;div&gt;&lt;b&gt;&lt;u&gt;IdPrivilege&lt;/u&gt;&lt;/b&gt;&lt;/div&gt;" style="text;html=1;align=left;verticalAlign=middle;resizable=0;points=[];autosize=1;strokeColor=none;fillColor=none;" parent="1" vertex="1">
          <mxGeometry x="225" y="-240" width="80" height="40" as="geometry" />
        </mxCell>
      </root>
    </mxGraphModel>
  </diagram>
</mxfile>
